<svg width="328" height="321" viewBox="0 0 328 321" fill="none" xmlns="http://www.w3.org/2000/svg">
<path d="M113.314 213.143L120.672 212.376L130.071 237.833L116.241 241.029L113.314 213.143Z" fill="url(#paint0_linear_235_1166)"/>
<path d="M152.801 106.244C177.288 96.1455 207.422 93.2643 227.506 95.6946C235.26 96.6329 241.422 102.073 244.937 109.048C247.33 113.794 244.005 119.444 238.713 119.939C183.666 125.092 144.513 151.391 138.621 168.396C134.819 179.369 133.603 188.034 133.561 194.71C133.499 204.303 129.864 214.206 121.298 218.524C113.277 222.568 103.179 220.946 97.7616 213.781C90.9263 204.741 85.2832 193.152 87.0631 174.956C89.0687 154.453 105.658 125.685 152.801 106.244Z" fill="url(#paint1_linear_235_1166)"/>
<path d="M180.067 153.837C132.884 153.063 108.819 179.415 98.5284 203.887C95.8823 210.179 99.3633 217.111 105.659 219.749C108.04 220.746 110.654 221.047 113.199 220.618L115.403 220.247C120.878 219.324 125.778 216.307 129.067 211.834L130.659 209.67C138.639 202.192 159.952 182.339 182.136 174.513C204.32 166.687 197.037 186.57 188.374 197.569C203.068 187.369 226.179 154.593 180.067 153.837Z" fill="url(#paint2_linear_235_1166)"/>
<path d="M87.8613 122.416C122.504 154.016 128.313 186.449 122.643 211.26C121.094 218.041 113.975 221.538 107.237 219.812C104.874 219.207 102.712 217.99 100.967 216.285L97.8623 213.25C94.6557 210.115 92.1895 206.304 90.6436 202.095L88.7173 196.85C84.9821 184.494 86.715 157.282 73.7406 137.66C60.7662 118.037 53.108 135.32 47.1545 158.744C44.4851 136.062 47.7055 85.7879 87.8613 122.416Z" fill="url(#paint3_linear_235_1166)"/>
<path d="M78.4637 192.173C80.7791 157.596 92.7624 144.086 113.291 131.574C120.402 127.24 129.602 129.397 134.538 136.105C143.425 148.181 132.158 168.028 118.627 174.488C112.269 177.523 106.289 182.03 101.692 188.659C87.0081 209.834 91.3143 227.695 91.1236 237.493L91.0102 237.323C85.9122 229.675 76.8615 216.098 78.4637 192.173Z" fill="url(#paint4_linear_235_1166)"/>
<defs>
<linearGradient id="paint0_linear_235_1166" x1="117.714" y1="224.111" x2="121.727" y2="254.832" gradientUnits="userSpaceOnUse">
<stop stop-color="#FCBF6C"/>
<stop offset="1" stop-color="#A3022E"/>
</linearGradient>
<linearGradient id="paint1_linear_235_1166" x1="236.193" y1="100.327" x2="97.0496" y2="204.697" gradientUnits="userSpaceOnUse">
<stop stop-color="#FFF7CB"/>
<stop offset="0.779411" stop-color="#F9E2AF"/>
</linearGradient>
<linearGradient id="paint2_linear_235_1166" x1="88.8902" y1="232.689" x2="176.951" y2="144.386" gradientUnits="userSpaceOnUse">
<stop stop-color="#FEEEA3"/>
<stop offset="0.693465" stop-color="#FCBF6C"/>
</linearGradient>
<linearGradient id="paint3_linear_235_1166" x1="108.767" y1="212.824" x2="96.0476" y2="116.757" gradientUnits="userSpaceOnUse">
<stop stop-color="#FEEEA3"/>
<stop offset="1" stop-color="#FCBF6C"/>
</linearGradient>
<linearGradient id="paint4_linear_235_1166" x1="107.806" y1="238.61" x2="120.511" y2="100.593" gradientUnits="userSpaceOnUse">
<stop offset="0.167778" stop-color="#F9F6AF"/>
<stop offset="1" stop-color="#FE9D2B"/>
</linearGradient>
</defs>
</svg>
