<svg width="219" height="204" viewBox="0 0 219 204" fill="none" xmlns="http://www.w3.org/2000/svg">
<path fill-rule="evenodd" clip-rule="evenodd" d="M149.261 100.852C153.271 98.5471 156.936 95.386 159.961 91.42C171.308 76.5418 169.349 55.97 155.584 45.4717C141.819 34.9734 121.461 38.5241 110.114 53.4023C107.054 57.4147 104.961 61.8412 103.807 66.3726C89.5483 67.0615 75.2712 74.2022 65.504 87.0084C48.6759 109.073 51.6078 139.6 72.0528 155.193C92.4977 170.786 122.713 165.54 139.542 143.476C149.362 130.6 152.453 114.842 149.261 100.852Z" fill="url(#paint0_linear_235_1078)"/>
<path fill-rule="evenodd" clip-rule="evenodd" d="M164.469 93.5889C161.712 97.2036 158.495 100.24 154.985 102.669C158.051 118.408 154.339 135.873 143.384 150.237C123.926 175.749 88.9894 181.814 65.35 163.785C41.7105 145.755 38.3204 110.458 57.778 84.9461C68.7329 70.5826 84.5946 62.3832 100.584 61.1776C101.999 57.1508 104.076 53.2456 106.833 49.6309C119.953 32.428 143.492 28.3225 159.407 40.4612C175.323 52.5999 177.589 76.3859 164.469 93.5889ZM159.961 91.4199C156.936 95.3859 153.271 98.547 149.261 100.852C152.453 114.842 149.362 130.6 139.541 143.476C122.713 165.54 92.4975 170.786 72.0526 155.193C51.6076 139.6 48.6757 109.073 65.5039 87.0083C75.271 74.202 89.5481 67.0614 103.807 66.3725C104.961 61.8411 107.053 57.4146 110.114 53.4022C121.461 38.5239 141.819 34.9733 155.584 45.4716C169.349 55.9699 171.308 76.5416 159.961 91.4199Z" fill="url(#paint1_linear_235_1078)"/>
<path opacity="0.6" d="M116.868 136.947C99.1014 160.242 62.0774 132.004 79.8439 108.709C95.1608 88.6264 132.08 78.6109 132.08 78.6109C132.08 78.6109 129.796 119.996 116.868 136.947Z" fill="url(#paint2_linear_235_1078)"/>
<path opacity="0.6" d="M115.272 142.539C95.904 167.934 55.5424 137.151 74.9105 111.756C91.6081 89.8627 131.855 78.9443 131.855 78.9443C131.855 78.9443 129.366 124.06 115.272 142.539Z" fill="url(#paint3_linear_235_1078)"/>
<defs>
<linearGradient id="paint0_linear_235_1078" x1="177.052" y1="17.3218" x2="35.8853" y2="202.413" gradientUnits="userSpaceOnUse">
<stop stop-color="#FDE6B2"/>
<stop offset="1" stop-color="#FCBF6C"/>
</linearGradient>
<linearGradient id="paint1_linear_235_1078" x1="159.407" y1="40.4612" x2="65.3501" y2="163.785" gradientUnits="userSpaceOnUse">
<stop stop-color="#5CD5AA"/>
<stop offset="1" stop-color="#009D65"/>
</linearGradient>
<linearGradient id="paint2_linear_235_1078" x1="59.9161" y1="134.838" x2="118.98" y2="57.3957" gradientUnits="userSpaceOnUse">
<stop stop-color="#F9E2AF"/>
<stop offset="1" stop-color="#FFC84E"/>
</linearGradient>
<linearGradient id="paint3_linear_235_1078" x1="53.1862" y1="140.24" x2="117.575" y2="55.8167" gradientUnits="userSpaceOnUse">
<stop stop-color="#6B0921" stop-opacity="0.68"/>
<stop offset="1" stop-color="#6B0921" stop-opacity="0"/>
</linearGradient>
</defs>
</svg>
