<svg width="83" height="85" viewBox="0 0 83 85" fill="none" xmlns="http://www.w3.org/2000/svg">
<path fill-rule="evenodd" clip-rule="evenodd" d="M29.6388 24.7226C13.2701 24.7226 0.000583856 37.9921 0.000582425 54.3608C0.000580994 70.7295 13.2701 83.999 29.6388 83.999C33.5804 83.999 37.3423 83.2296 40.7825 81.8327C44.2227 83.2296 47.9846 83.999 51.9262 83.999C68.295 83.999 81.5645 70.7295 81.5645 54.3608C81.5645 37.9921 68.295 24.7226 51.9262 24.7226C47.9846 24.7226 44.2227 25.492 40.7825 26.8889C37.3423 25.492 33.5804 24.7226 29.6388 24.7226Z" fill="url(#paint0_linear_206_211)"/>
<g style="mix-blend-mode:multiply" opacity="0.5">
<circle cx="29.6411" cy="54.4448" r="29.6382" transform="rotate(-180 29.6411 54.4448)" fill="url(#paint1_linear_206_211)"/>
</g>
<g style="mix-blend-mode:multiply" opacity="0.5">
<circle cx="52.3637" cy="54.4448" r="29.6382" transform="rotate(-180 52.3637 54.4448)" fill="url(#paint2_linear_206_211)"/>
</g>
<path d="M34.6052 33.6982C34.2222 27.7309 37.8647 18.378 48.011 10.4814C60.7586 0.560411 73.5456 2.08412 79.0355 2.08412C70.144 2.57791 57.7947 8.99952 53.843 12.9513C50.1777 16.6166 48.4093 20.3608 48.4093 25.3005" stroke="#34000D" stroke-width="2"/>
<g style="mix-blend-mode:overlay">
<ellipse cx="17.2929" cy="54.4446" rx="17.289" ry="19.7588" fill="url(#paint3_radial_206_211)"/>
</g>
<g style="mix-blend-mode:multiply">
<ellipse cx="35.7784" cy="31.6899" rx="5.55892" ry="8.16543" transform="rotate(-55.7195 35.7784 31.6899)" fill="url(#paint4_radial_206_211)"/>
</g>
<defs>
<linearGradient id="paint0_linear_206_211" x1="29.6386" y1="120.553" x2="29.6386" y2="24.7226" gradientUnits="userSpaceOnUse">
<stop stop-color="#C30935"/>
<stop offset="1" stop-color="#6B0921"/>
</linearGradient>
<linearGradient id="paint1_linear_206_211" x1="2.96669" y1="57.4086" x2="52.3637" y2="57.4086" gradientUnits="userSpaceOnUse">
<stop offset="0.0550001" stop-color="#490010"/>
<stop offset="1" stop-color="#CA1646" stop-opacity="0"/>
</linearGradient>
<linearGradient id="paint2_linear_206_211" x1="25.6893" y1="57.4086" x2="75.0864" y2="57.4086" gradientUnits="userSpaceOnUse">
<stop offset="0.0550001" stop-color="#490010"/>
<stop offset="1" stop-color="#CA1646" stop-opacity="0"/>
</linearGradient>
<radialGradient id="paint3_radial_206_211" cx="0" cy="0" r="1" gradientUnits="userSpaceOnUse" gradientTransform="translate(10.8713 56.9145) rotate(27.512) scale(26.7338 23.3921)">
<stop stop-color="#FF0044"/>
<stop offset="1" stop-color="#CA1646" stop-opacity="0"/>
</radialGradient>
<radialGradient id="paint4_radial_206_211" cx="0" cy="0" r="1" gradientUnits="userSpaceOnUse" gradientTransform="translate(33.7137 32.7106) rotate(33.7989) scale(9.17414 9.0574)">
<stop offset="0.0169508" stop-color="#330713"/>
<stop offset="1" stop-color="#CA1646" stop-opacity="0"/>
</radialGradient>
</defs>
</svg>
